<svg width="60" height="62" viewBox="0 0 60 62" version="1.1" xmlns="http://www.w3.org/2000/svg" xmlns:xlink="http://www.w3.org/1999/xlink">
<title>Exercise</title>
<desc>Created using Figma</desc>
<g id="Canvas" transform="matrix(2 0 0 2 -48736 -2114)">
<g id="Exercise">
<g id="Stroke 80">
<mask id="mask0_outline_ins">
<use xlink:href="#path0_fill" fill="white" transform="translate(24368 1063.94)"/>
</mask>
<g mask="url(#mask0_outline_ins)">
<use xlink:href="#path1_stroke_2x" transform="translate(24368 1063.94)" fill="#FFFFFF"/>
</g>
</g>
<g id="Stroke 82">
<mask id="mask1_outline_ins">
<use xlink:href="#path2_fill" fill="white" transform="translate(24377.2 1057.74)"/>
</mask>
<g mask="url(#mask1_outline_ins)">
<use xlink:href="#path3_stroke_2x" transform="translate(24377.2 1057.74)" fill="#FFFFFF"/>
</g>
</g>
<g id="Stroke 84">
<use xlink:href="#path4_stroke" transform="translate(24389.3 1062.57)" fill="#FFFFFF"/>
</g>
</g>
</g>
<defs>
<path id="path0_fill" fill-rule="evenodd" d="M 23.8233 6.00485L 23.8233 19.8005C 23.8233 22.0096 22.0324 23.8005 19.8233 23.8005L 4 23.8005C 1.79086 23.8005 0 22.0096 0 19.8005L 0 4C 0 1.79086 1.79086 0 4 0L 17.8947 0"/>
<path id="path1_stroke_2x" d="M 25.8233 6.00485C 25.8233 4.90028 24.9278 4.00485 23.8233 4.00485C 22.7187 4.00485 21.8233 4.90028 21.8233 6.00485L 25.8233 6.00485ZM 17.8947 2C 18.9993 2 19.8947 1.10457 19.8947 0C 19.8947 -1.10457 18.9993 -2 17.8947 -2L 17.8947 2ZM 21.8233 6.00485L 21.8233 19.8005L 25.8233 19.8005L 25.8233 6.00485L 21.8233 6.00485ZM 19.8233 21.8005L 4 21.8005L 4 25.8005L 19.8233 25.8005L 19.8233 21.8005ZM 2 19.8005L 2 4L -2 4L -2 19.8005L 2 19.8005ZM 4 2L 17.8947 2L 17.8947 -2L 4 -2L 4 2ZM 21.8233 19.8005C 21.8233 20.9051 20.9278 21.8005 19.8233 21.8005L 19.8233 25.8005C 23.137 25.8005 25.8233 23.1142 25.8233 19.8005L 21.8233 19.8005ZM 4 21.8005C 2.89543 21.8005 2 20.9051 2 19.8005L -2 19.8005C -2 23.1142 0.686292 25.8005 4 25.8005L 4 21.8005ZM 2 4C 2 2.89543 2.89543 2 4 2L 4 -2C 0.686292 -2 -2 0.686292 -2 4L 2 4Z"/>
<path id="path2_fill" fill-rule="evenodd" d="M 7.02786 19.6753L 20.7613 5.90183L 14.8307 0L 1.09727 13.7735L 0 20.7995L 7.02786 19.6753Z"/>
<path id="path3_stroke_2x" d="M 20.7613 5.90183L 22.1775 7.31398C 22.5523 6.93812 22.7623 6.42871 22.7613 5.89794C 22.7602 5.36717 22.5483 4.85858 22.172 4.48418L 20.7613 5.90183ZM 14.8307 0L 16.2415 -1.41765C 15.459 -2.19626 14.1938 -2.1938 13.4144 -1.41215L 14.8307 0ZM 1.09727 13.7735L -0.319001 12.3613C -0.617557 12.6608 -0.813532 13.0471 -0.878776 13.4649L 1.09727 13.7735ZM 0 20.7995L -1.97605 20.4909C -2.0748 21.1233 -1.86497 21.7647 -1.41159 22.2164C -0.958213 22.6681 -0.316041 22.8755 0.315917 22.7744L 0 20.7995ZM 8.44414 21.0875L 22.1775 7.31398L 19.345 4.48968L 5.61159 18.2632L 8.44414 21.0875ZM 22.172 4.48418L 16.2415 -1.41765L 13.4199 1.41765L 19.3505 7.31947L 22.172 4.48418ZM 13.4144 -1.41215L -0.319001 12.3613L 2.51354 15.1856L 16.247 1.41215L 13.4144 -1.41215ZM -0.878776 13.4649L -1.97605 20.4909L 1.97605 21.1081L 3.07332 14.0821L -0.878776 13.4649ZM 0.315917 22.7744L 7.34378 21.6502L 6.71195 17.7004L -0.315917 18.8247L 0.315917 22.7744Z"/>
<path id="path4_stroke" d="M 0.706769 -0.707445C 0.316058 -1.09778 -0.317107 -1.09748 -0.707445 -0.706769C -1.09778 -0.316058 -1.09748 0.317107 -0.706769 0.707445L 0.706769 -0.707445ZM 3.24316 4.6536C 3.63387 5.04394 4.26704 5.04364 4.65737 4.65293C 5.04771 4.26221 5.04741 3.62905 4.6567 3.23871L 3.24316 4.6536ZM -0.706769 0.707445L 3.24316 4.6536L 4.6567 3.23871L 0.706769 -0.707445L -0.706769 0.707445Z"/>
</defs>
</svg>
