<svg width="30" height="28" viewBox="0 0 30 28" version="1.1" xmlns="http://www.w3.org/2000/svg" xmlns:xlink="http://www.w3.org/1999/xlink">
<title>Profile</title>
<desc>Created using Figma</desc>
<g id="Canvas" transform="matrix(2 0 0 2 -38372 2354)">
<g id="Profile">
<g id="Oval">
<use xlink:href="#path0_stroke" transform="translate(19190.3 -1175.65)" fill="#333333"/>
</g>
<g id="Oval 2">
<use xlink:href="#path1_stroke" transform="translate(19187.3 -1170)" fill="#333333"/>
</g>
</g>
</g>
<defs>
<path id="path0_stroke" d="M 3 6.64706C 5.15116 6.64706 7 4.99146 7 2.82353L 5 2.82353C 5 3.77439 4.16255 4.64706 3 4.64706L 3 6.64706ZM 7 2.82353C 7 0.655604 5.15116 -1 3 -1L 3 1C 4.16255 1 5 1.87267 5 2.82353L 7 2.82353ZM 3 -1C 0.84884 -1 -1 0.655604 -1 2.82353L 1 2.82353C 1 1.87267 1.83745 1 3 1L 3 -1ZM -1 2.82353C -1 4.99146 0.84884 6.64706 3 6.64706L 3 4.64706C 1.83745 4.64706 1 3.77439 1 2.82353L -1 2.82353Z"/>
<path id="path1_stroke" d="M 11 5.64706C 11 6.19934 11.4477 6.64706 12 6.64706C 12.5523 6.64706 13 6.19934 13 5.64706L 11 5.64706ZM -1 5.64706C -1 6.19934 -0.552285 6.64706 0 6.64706C 0.552285 6.64706 1 6.19934 1 5.64706L -1 5.64706ZM 13 5.64706C 13 1.91974 9.80801 -1 6 -1L 6 1C 8.8194 1 11 3.13681 11 5.64706L 13 5.64706ZM 6 -1C 2.19199 -1 -1 1.91974 -1 5.64706L 1 5.64706C 1 3.13681 3.1806 1 6 1L 6 -1Z"/>
</defs>
</svg>
